<svg width="42" height="25" viewBox="0 0 42 25" fill="none" xmlns="http://www.w3.org/2000/svg">
<path fill-rule="evenodd" clip-rule="evenodd" d="M13.0587 0.0743163C14.4916 -0.00632887 15.9229 0.000122742 17.3559 0.000122742C17.3658 0.000122742 24.6169 0.000122742 24.6169 0.000122742C26.0779 0.000122742 27.5092 -0.00632887 28.9413 0.0743163C30.2433 0.146897 31.5115 0.301736 32.774 0.647703C35.4315 1.37512 37.7522 2.89448 39.4298 5.04851C41.0974 7.18883 42 9.80899 42 12.4993C42 15.1929 41.0974 17.8114 39.4298 19.9517C37.7522 22.105 35.4315 23.6251 32.774 24.3525C31.5115 24.6985 30.2433 24.8525 28.9413 24.9259C27.5092 25.0066 26.0779 24.9993 24.6449 24.9993C24.6351 24.9993 17.3822 25.0001 17.3822 25.0001C15.9229 24.9993 14.4916 25.0066 13.0587 24.9259C11.7575 24.8525 10.4893 24.6985 9.22682 24.3525C6.56929 23.6251 4.24859 22.105 2.57106 19.9517C0.903412 17.8114 0 15.1929 0 12.5001C0 9.80899 0.903412 7.18883 2.57106 5.04851C4.24859 2.89448 6.56929 1.37512 9.22682 0.647703C10.4893 0.301736 11.7575 0.146897 13.0587 0.0743163Z" fill="#20203A"/>
<path fill-rule="evenodd" clip-rule="evenodd" d="M29.5 23C35.299 23 40 18.299 40 12.5C40 6.70101 35.299 2 29.5 2C23.701 2 19 6.70101 19 12.5C19 18.299 23.701 23 29.5 23Z" fill="white"/>
</svg>
