<svg width="24" height="24" viewBox="0 0 24 24" fill="none" xmlns="http://www.w3.org/2000/svg">
<path d="M13.1 10.8V10.9H13.2L21.2 10.9C21.3675 10.9 21.5433 10.9847 21.6793 11.1207C21.8153 11.2567 21.9 11.4325 21.9 11.6V12.4C21.9 12.5675 21.8153 12.7433 21.6793 12.8793C21.5433 13.0153 21.3675 13.1 21.2 13.1L13.2 13.1H13.1V13.2L13.1 21.2C13.1 21.3675 13.0153 21.5433 12.8793 21.6793C12.7433 21.8153 12.5675 21.9 12.4 21.9H11.6C11.4325 21.9 11.2567 21.8153 11.1207 21.6793C10.9847 21.5433 10.9 21.3675 10.9 21.2L10.9 13.2V13.1H10.8H2.8C2.63252 13.1 2.45668 13.0153 2.32071 12.8793C2.18475 12.7433 2.1 12.5675 2.1 12.4L2.1 11.6C2.1 11.4325 2.18475 11.2567 2.32071 11.1207C2.45668 10.9847 2.63252 10.9 2.8 10.9H10.8H10.9V10.8L10.9 2.8C10.9 2.63252 10.9847 2.45668 11.1207 2.32071C11.2567 2.18475 11.4325 2.1 11.6 2.1H12.4C12.5675 2.1 12.7433 2.18475 12.8793 2.32071C13.0153 2.45668 13.1 2.63252 13.1 2.8L13.1 10.8Z" fill="#20203A" stroke="white" stroke-width="0.2"/>
</svg>
