<svg width="24" height="24" viewBox="0 0 24 24" fill="none" xmlns="http://www.w3.org/2000/svg">
<path fill-rule="evenodd" clip-rule="evenodd" d="M10.001 2L20.001 2C21.1533 2 22.001 2.84773 22.001 4.00002V14.0001C22.001 15.1524 21.1533 16.0002 20.001 16.0002H16V20C16 21.1523 15.1523 22 14 22H4C2.84772 22 2 21.1523 2 20L2 9.9999C2 8.8476 2.84772 7.99988 4 7.99988H8.00098V4.00002C8.00098 2.84773 8.84869 2 10.001 2ZM8.00098 9.9999H4L4 20H14V16.0002H10.001C8.84869 16.0002 8.00098 15.1524 8.00098 14.0001L8.00098 9.9999ZM10.001 3.99927L10.001 13.9994L20.001 13.9994V3.99927L10.001 3.99927Z" fill="#20203A"/>
<path d="M16 16.0002V15.8502H15.85V16.0002H16ZM8.00098 7.99988V8.14988H8.15098V7.99988H8.00098ZM8.00098 9.9999H8.15098V9.8499H8.00098V9.9999ZM4 9.9999V9.8499H3.85V9.9999H4ZM4 20H3.85V20.15H4V20ZM14 20V20.15H14.15V20H14ZM14 16.0002H14.15V15.8502H14V16.0002ZM10.001 13.9994H9.85098V14.1494H10.001V13.9994ZM10.001 3.99927V3.84927L9.85098 3.84927V3.99927L10.001 3.99927ZM20.001 13.9994V14.1494H20.151V13.9994H20.001ZM20.001 3.99927H20.151V3.84927H20.001V3.99927ZM20.001 1.85L10.001 1.85V2.15L20.001 2.15V1.85ZM22.151 4.00002C22.151 2.76488 21.2361 1.85 20.001 1.85V2.15C21.0704 2.15 21.851 2.93057 21.851 4.00002H22.151ZM22.151 14.0001V4.00002H21.851V14.0001H22.151ZM20.001 16.1502C21.2361 16.1502 22.151 15.2353 22.151 14.0001H21.851C21.851 15.0696 21.0704 15.8502 20.001 15.8502V16.1502ZM16 16.1502H20.001V15.8502H16V16.1502ZM15.85 16.0002V20H16.15V16.0002H15.85ZM15.85 20C15.85 21.0695 15.0694 21.85 14 21.85V22.15C15.2351 22.15 16.15 21.2352 16.15 20H15.85ZM14 21.85H4L4 22.15H14V21.85ZM4 21.85C2.93056 21.85 2.15 21.0695 2.15 20H1.85C1.85 21.2352 2.76487 22.15 4 22.15L4 21.85ZM2.15 20L2.15 9.9999H1.85L1.85 20H2.15ZM2.15 9.9999C2.15 8.93044 2.93056 8.14988 4 8.14988V7.84988C2.76487 7.84988 1.85 8.76476 1.85 9.9999H2.15ZM4 8.14988H8.00098V7.84988H4V8.14988ZM7.85098 4.00002L7.85098 7.99988H8.15098V4.00002H7.85098ZM10.001 1.85C8.76585 1.85 7.85098 2.76488 7.85098 4.00002H8.15098C8.15098 2.93057 8.93154 2.15 10.001 2.15V1.85ZM8.00098 9.8499H4V10.1499H8.00098V9.8499ZM3.85 9.9999L3.85 20H4.15L4.15 9.9999H3.85ZM4 20.15H14V19.85H4V20.15ZM14.15 20V16.0002H13.85V20H14.15ZM10.001 16.1502H14V15.8502H10.001V16.1502ZM7.85098 14.0001C7.85098 15.2353 8.76585 16.1502 10.001 16.1502V15.8502C8.93154 15.8502 8.15098 15.0696 8.15098 14.0001H7.85098ZM7.85098 9.9999L7.85098 14.0001H8.15098L8.15098 9.9999H7.85098ZM10.151 13.9994L10.151 3.99927L9.85098 3.99927L9.85098 13.9994H10.151ZM20.001 13.8494L10.001 13.8494V14.1494L20.001 14.1494V13.8494ZM19.851 3.99927V13.9994H20.151V3.99927H19.851ZM10.001 4.14927L20.001 4.14927V3.84927L10.001 3.84927V4.14927Z" fill="white"/>
</svg>
