<svg width="71" height="35" viewBox="0 0 71 35" fill="none" xmlns="http://www.w3.org/2000/svg">
<path d="M40.2847 26.6963L40.9114 26.0739C41.1071 25.8781 41.2149 25.6175 41.2149 25.339C41.2149 25.0606 41.1071 24.7997 40.9114 24.6038L33.8115 17.5042L40.9193 10.3965C41.115 10.2009 41.2227 9.94002 41.2227 9.66166C41.2227 9.3833 41.115 9.12224 40.9193 8.92653L40.2964 8.304C39.8914 7.89867 39.2317 7.89867 38.8266 8.304L30.3336 16.7666C30.138 16.9622 30.0002 17.2228 30.0002 17.5036L30.0002 17.5069C30.0002 17.7854 30.1382 18.046 30.3336 18.2415L38.8036 26.6963C38.9992 26.8922 39.2676 26.9997 39.546 27C39.8245 27 40.0893 26.8922 40.2847 26.6963Z" fill="#EB2D7C"/>
</svg>
