<svg width="24" height="24" viewBox="0 0 24 24" fill="none" xmlns="http://www.w3.org/2000/svg">
<path d="M3 6H5L21 6" stroke="#20203A" stroke-width="1.7" stroke-linecap="round" stroke-linejoin="round"/>
<path d="M19.85 6C19.85 5.53056 19.4694 5.15 19 5.15C18.5306 5.15 18.15 5.53056 18.15 6H19.85ZM5.85 6C5.85 5.53056 5.46944 5.15 5 5.15C4.53056 5.15 4.15 5.53056 4.15 6H5.85ZM7.15 6C7.15 6.46944 7.53056 6.85 8 6.85C8.46944 6.85 8.85 6.46944 8.85 6H7.15ZM15.15 6C15.15 6.46944 15.5306 6.85 16 6.85C16.4694 6.85 16.85 6.46944 16.85 6H15.15ZM18.15 6L18.15 20H19.85L19.85 6H18.15ZM18.15 20C18.15 20.6351 17.6351 21.15 17 21.15V22.85C18.574 22.85 19.85 21.574 19.85 20H18.15ZM17 21.15H7V22.85H17V21.15ZM7 21.15C6.36487 21.15 5.85 20.6351 5.85 20H4.15C4.15 21.574 5.42599 22.85 7 22.85V21.15ZM5.85 20L5.85 6H4.15L4.15 20H5.85ZM8.85 6V4H7.15V6H8.85ZM8.85 4C8.85 3.36487 9.36487 2.85 10 2.85V1.15C8.42599 1.15 7.15 2.42599 7.15 4H8.85ZM10 2.85L14 2.85V1.15L10 1.15V2.85ZM14 2.85C14.6351 2.85 15.15 3.36487 15.15 4H16.85C16.85 2.42599 15.574 1.15 14 1.15V2.85ZM15.15 4V6H16.85V4H15.15Z" fill="#20203A"/>
<path d="M10 11L10 17" stroke="#20203A" stroke-width="1.7" stroke-linecap="round" stroke-linejoin="round"/>
<path d="M14 11L14 17" stroke="#20203A" stroke-width="1.7" stroke-linecap="round" stroke-linejoin="round"/>
</svg>
