<svg width="71" height="24" viewBox="0 0 71 24" fill="none" xmlns="http://www.w3.org/2000/svg">
<path fill-rule="evenodd" clip-rule="evenodd" d="M36 24C42.6274 24 48 18.6274 48 12C48 5.37258 42.6274 0 36 0C29.3726 0 24 5.37258 24 12C24 18.6274 29.3726 24 36 24Z" fill="#D6CFE6"/>
<path d="M31.2711 15.3696C30.9157 15.7178 30.9012 16.3562 31.2783 16.7262C31.6482 17.0961 32.2865 17.0816 32.6346 16.7334L36 13.3674L39.3654 16.7262C39.728 17.0889 40.3518 17.0961 40.7217 16.7189C41.0916 16.3489 41.0916 15.7251 40.7289 15.3624L37.3636 12.0036L40.7289 8.63765C41.0916 8.27494 41.0916 7.65107 40.7217 7.2811C40.3518 6.90388 39.728 6.91114 39.3654 7.27385L36 10.6326L32.6346 7.26659C32.2865 6.91839 31.6482 6.90388 31.2783 7.27385C30.9012 7.64382 30.9157 8.28219 31.2711 8.63765L34.6364 12.0036L31.2711 15.3696Z" fill="white"/>
</svg>
