<svg width="22" height="22" viewBox="0 0 22 22" fill="none" xmlns="http://www.w3.org/2000/svg">
<g clip-path="url(#clip0_1_36676)">
<path d="M11 0C8.82441 0 6.69767 0.645139 4.88873 1.85383C3.07979 3.06253 1.66989 4.7805 0.83733 6.79048C0.00476613 8.80047 -0.213071 11.0122 0.211367 13.146C0.635804 15.2798 1.68345 17.2398 3.22183 18.7782C4.76021 20.3166 6.72022 21.3642 8.85401 21.7886C10.9878 22.2131 13.1995 21.9952 15.2095 21.1627C17.2195 20.3301 18.9375 18.9202 20.1462 17.1113C21.3549 15.3023 22 13.1756 22 11C22 9.55546 21.7155 8.12506 21.1627 6.79048C20.6099 5.4559 19.7996 4.24327 18.7782 3.22183C17.7567 2.20038 16.5441 1.39013 15.2095 0.837325C13.8749 0.284523 12.4445 0 11 0ZM17.2726 18.0912C15.541 19.6205 13.3103 20.4646 11 20.4646C8.68972 20.4646 6.45904 19.6205 4.72745 18.0912L4.60466 17.9786V17.8251C4.78884 17.1498 5.52559 16.6688 6.56931 16.3619C7.99779 15.9868 9.47256 15.818 10.9488 15.8605C12.4251 15.818 13.8999 15.9868 15.3284 16.3619C16.3516 16.6688 17.1088 17.1498 17.3033 17.8251V17.9786L17.2726 18.0912ZM18.5823 16.6791L18.3674 16.4028C17.6708 15.5945 16.7232 15.0433 15.6763 14.8372C14.1468 14.4619 12.5745 14.2899 11 14.3256C9.42553 14.2899 7.85323 14.4619 6.32373 14.8372C5.27761 15.0455 4.33071 15.5964 3.63256 16.4028L3.41768 16.6791L3.22326 16.3926C2.23998 14.9724 1.66406 13.3103 1.5579 11.5862C1.45174 9.86218 1.81938 8.14195 2.621 6.61191C3.42262 5.08186 4.62765 3.80035 6.10553 2.90621C7.58342 2.01207 9.2778 1.53939 11.0051 1.53939C12.7324 1.53939 14.4268 2.01207 15.9047 2.90621C17.3826 3.80035 18.5876 5.08186 19.3892 6.61191C20.1909 8.14195 20.5585 9.86218 20.4523 11.5862C20.3462 13.3103 19.7703 14.9724 18.787 16.3926L18.5823 16.6791Z" fill="#20203A"/>
<path d="M14.8388 9.15799C14.8652 8.63748 14.7855 8.11705 14.6046 7.62827C14.4237 7.13948 14.1454 6.69255 13.7866 6.31458C13.4277 5.9366 12.9959 5.63548 12.5171 5.42946C12.0384 5.22345 11.5228 5.11685 11.0016 5.11613C10.4919 5.09441 9.98326 5.1788 9.50788 5.36396C9.0325 5.54911 8.60076 5.83099 8.24001 6.19173C7.87927 6.55247 7.59739 6.98421 7.41224 7.4596C7.22709 7.93498 7.1427 8.44364 7.16442 8.95334C7.07592 10.284 7.47617 11.6011 8.29 12.6575C8.62933 13.0376 9.04822 13.3382 9.51688 13.538C9.98553 13.7379 10.4925 13.832 11.0016 13.8138C11.5054 13.8316 12.0072 13.7412 12.4732 13.5488C12.9391 13.3564 13.3585 13.0665 13.703 12.6985C14.5122 11.7025 14.9176 10.4388 14.8388 9.15799ZM12.6695 11.5115C12.4664 11.753 12.2101 11.9442 11.9207 12.0703C11.6314 12.1963 11.3168 12.2537 11.0016 12.238C10.684 12.262 10.3652 12.2084 10.0729 12.0819C9.78053 11.9553 9.52334 11.7596 9.32349 11.5115C8.84763 10.7473 8.62889 9.85083 8.6993 8.95334C8.67907 8.34358 8.89539 7.74961 9.30302 7.29567C9.52762 7.07862 9.79403 6.90953 10.086 6.79871C10.3781 6.68788 10.6896 6.63763 11.0016 6.65102C11.3205 6.64841 11.636 6.71578 11.9259 6.84838C12.2159 6.98098 12.4732 7.17558 12.6798 7.41846C13.1011 7.91018 13.3237 8.54146 13.304 9.18869C13.3555 10.0118 13.1323 10.8288 12.6695 11.5115Z" fill="#20203A"/>
</g>
<defs>
<clipPath id="clip0_1_36676">
<rect width="22" height="22" fill="white"/>
</clipPath>
</defs>
</svg>
