<svg width="17" height="22" viewBox="0 0 17 22" fill="none" xmlns="http://www.w3.org/2000/svg">
<g clip-path="url(#clip0_1_33224)">
<path d="M12.1387 9.20093H4.85156V10.7556H12.1387V9.20093Z" fill="#EB2D7C"/>
<path d="M10.1941 13.2881H4.85156V14.8428H10.1941V13.2881Z" fill="#EB2D7C"/>
<path d="M5.58349 1.04611H4.62086C4.16546 1.05634 3.73212 1.2473 3.41364 1.5781C3.09517 1.90889 2.9169 2.35321 2.91701 2.81589V3.06033H1.7041C1.24366 3.07061 0.805953 3.26563 0.486671 3.60276C0.167388 3.93989 -0.00749778 4.39171 0.000246669 4.85945V20.2008C-0.00749778 20.6685 0.167388 21.1203 0.486671 21.4575C0.805953 21.7946 1.24366 21.9896 1.7041 21.9999H15.2964C15.7568 21.9896 16.1945 21.7946 16.5138 21.4575C16.8331 21.1203 17.008 20.6685 17.0002 20.2008V4.85945C17.008 4.39171 16.8331 3.93989 16.5138 3.60276C16.1945 3.26563 15.7568 3.07061 15.2964 3.06033H14.0931V2.81589C14.0932 2.35321 13.9149 1.90889 13.5965 1.5781C13.278 1.2473 12.8447 1.05634 12.3893 1.04611H11.3304L11.263 0.987445C10.4874 0.334275 9.50761 -0.0159593 8.50025 -0.000110294C7.4967 -0.0207015 6.5194 0.32639 5.74713 0.977667L5.67975 1.04611H5.58349ZM13.8621 4.77145L13.9295 4.64433H15.5371V20.4452H1.46344V4.615H3.08065L3.14804 4.74211C3.29225 5.01184 3.50485 5.23748 3.76382 5.39565C4.02279 5.55382 4.31869 5.63876 4.62086 5.64167H12.3893C12.6914 5.63876 12.9873 5.55382 13.2463 5.39565C13.5053 5.23748 13.7179 5.01184 13.8621 4.74211V4.77145ZM5.97816 2.57145H6.30546L6.52686 2.30745C6.78681 2.05039 7.09635 1.85079 7.43598 1.72121C7.7756 1.59164 8.13797 1.5349 8.50025 1.55456C8.86253 1.5349 9.22489 1.59164 9.56452 1.72121C9.90415 1.85079 10.2137 2.05039 10.4736 2.30745L10.695 2.57145H12.6203V4.087H4.37058V2.57145H5.97816Z" fill="#EB2D7C"/>
</g>
<defs>
<clipPath id="clip0_1_33224">
<rect width="17" height="22" fill="white"/>
</clipPath>
</defs>
</svg>
