<svg width="27" height="25" viewBox="0 0 27 25" fill="none" xmlns="http://www.w3.org/2000/svg">
<path d="M18.9434 20.5618L22.8062 22.9999V20.5618H24.0754C24.7764 20.5618 25.3447 19.988 25.3447 19.2801V11.5894C25.3447 10.8815 24.7764 10.3076 24.0754 10.3076H13.9216C13.2206 10.3076 12.6523 10.8815 12.6523 11.5894V19.2801C12.6523 19.988 13.2206 20.5618 13.9216 20.5618H18.9434Z" stroke="#20203A" stroke-width="1.5"/>
<path d="M10.1873 14.6723L5.03696 17.9231V14.6723H3.34465C2.41002 14.6723 1.65234 13.9071 1.65234 12.9632V2.70904C1.65234 1.76516 2.41002 1 3.34465 1H16.8831C17.8178 1 18.5754 1.76516 18.5754 2.70904V12.9632C18.5754 13.9071 17.8178 14.6723 16.8831 14.6723H10.1873Z" fill="white" stroke="#20203A" stroke-width="1.5"/>
</svg>
