<svg width="29" height="22" viewBox="0 0 29 22" fill="none" xmlns="http://www.w3.org/2000/svg">
<path d="M14.1964 19.7414C14.0978 19.7425 14 19.7235 13.9089 19.6857C13.8178 19.6479 13.7353 19.592 13.6664 19.5214L4.82644 10.6814C3.65418 9.5052 2.9972 7.91147 3.00001 6.25083C3.00282 4.5902 3.6652 2.9987 4.84144 1.82644C6.01767 0.654183 7.61141 -0.00280404 9.27205 8.99635e-06C10.9327 0.00282203 12.5242 0.665204 13.6964 1.84144L14.2264 2.37144L14.6964 1.84144C15.8687 0.669183 17.4586 0.0106155 19.1164 0.0106155C19.9373 0.0106155 20.7501 0.172298 21.5085 0.486431C22.2669 0.800565 22.956 1.261 23.5364 1.84144C24.1169 2.42188 24.5773 3.11097 24.8914 3.86935C25.2056 4.62774 25.3673 5.44057 25.3673 6.26144C25.3673 7.08231 25.2056 7.89514 24.8914 8.65353C24.5773 9.41191 24.1169 10.101 23.5364 10.6814L14.6964 19.5214C14.5639 19.6559 14.3851 19.7346 14.1964 19.7414ZM9.24644 1.51144C8.62221 1.50891 8.00372 1.6305 7.4269 1.86912C6.85008 2.10775 6.32644 2.45865 5.88644 2.90144C4.99733 3.79363 4.49809 5.00186 4.49809 6.26144C4.49809 7.52102 4.99733 8.72924 5.88644 9.62144L14.1964 17.9314L22.5064 9.62144C23.3956 8.72924 23.8948 7.52102 23.8948 6.26144C23.8948 5.00186 23.3956 3.79363 22.5064 2.90144C21.6142 2.01233 20.406 1.51309 19.1464 1.51309C17.8869 1.51309 16.6786 2.01233 15.7864 2.90144L14.6964 3.96144C14.5558 4.10189 14.3652 4.18078 14.1664 4.18078C13.9677 4.18078 13.7771 4.10189 13.6364 3.96144L12.6064 2.90144C12.1654 2.45999 11.6416 2.10997 11.065 1.87144C10.4884 1.63291 9.87042 1.51057 9.24644 1.51144Z" fill="#20203A"/>
</svg>
