<svg width="22" height="22" viewBox="0 0 22 22" fill="none" xmlns="http://www.w3.org/2000/svg">
<g clip-path="url(#clip0_1_34043)">
<path fill-rule="evenodd" clip-rule="evenodd" d="M8.77172 1.22724e-05C7.37251 -0.00232534 5.99295 0.329315 4.74769 0.967371C3.50243 1.60543 2.42744 2.53147 1.61205 3.66854C0.796658 4.80561 0.264424 6.12087 0.0595782 7.505C-0.145268 8.88913 -0.0168092 10.3022 0.434278 11.6267C0.885364 12.9512 1.64605 14.1489 2.65312 15.1203C3.66019 16.0917 4.88455 16.8087 6.22446 17.2117C7.56436 17.6148 8.98111 17.6922 10.357 17.4376C11.7328 17.183 13.028 16.6036 14.135 15.7478L14.2619 15.6403L14.3889 15.7576L20.6607 22.0293L21.9991 20.6323L15.6003 14.2336L15.7078 14.0968C16.9018 12.565 17.5454 10.6758 17.5346 8.73358C17.5192 6.41699 16.5901 4.2001 14.9492 2.56473C13.3083 0.929361 11.0884 0.00768302 8.77172 1.22724e-05ZM8.77172 15.9725C7.34538 15.9744 5.95052 15.5532 4.76363 14.7622C3.57673 13.9712 2.65114 12.8459 2.10396 11.5287C1.55679 10.2114 1.41262 8.76153 1.6897 7.36237C1.96678 5.9632 2.65265 4.67766 3.66054 3.6684C4.66843 2.65915 5.95304 1.97153 7.35183 1.69255C8.75062 1.41358 10.2007 1.55578 11.5187 2.10117C12.8366 2.64655 13.9632 3.57062 14.7558 4.75644C15.5485 5.94226 15.9715 7.33655 15.9715 8.76289C15.969 10.6725 15.2099 12.5033 13.8605 13.8545C12.5111 15.2058 10.6813 15.9673 8.77172 15.9725Z" fill="#20203A"/>
</g>
<defs>
<clipPath id="clip0_1_34043">
<rect width="22" height="22" fill="white"/>
</clipPath>
</defs>
</svg>
