<svg width="20" height="20" viewBox="0 0 20 20" fill="none" xmlns="http://www.w3.org/2000/svg">
<path d="M11.1 8.8V8.9H11.2H19.2C19.3675 8.9 19.5433 8.98475 19.6793 9.12071C19.8153 9.25668 19.9 9.43252 19.9 9.6V10.4C19.9 10.5675 19.8153 10.7433 19.6793 10.8793C19.5433 11.0153 19.3675 11.1 19.2 11.1H11.2H11.1V11.2V19.2C11.1 19.3675 11.0153 19.5433 10.8793 19.6793C10.7433 19.8153 10.5675 19.9 10.4 19.9H9.6C9.43252 19.9 9.25668 19.8153 9.12071 19.6793C8.98475 19.5433 8.9 19.3675 8.9 19.2V11.2V11.1H8.8H0.8C0.632523 11.1 0.456676 11.0153 0.320711 10.8793C0.184745 10.7433 0.1 10.5675 0.1 10.4V9.6C0.1 9.43252 0.184745 9.25668 0.320711 9.12071C0.456676 8.98475 0.632523 8.9 0.8 8.9H8.8H8.9V8.8V0.8C8.9 0.632523 8.98475 0.456676 9.12071 0.320711C9.25668 0.184745 9.43252 0.1 9.6 0.1H10.4C10.5675 0.1 10.7433 0.184745 10.8793 0.320711C11.0153 0.456676 11.1 0.632523 11.1 0.8V8.8Z" fill="white" stroke="#543393" stroke-width="0.2"/>
</svg>
